# xmcd
#
# Track frame offsets:
#	187
#	13631
#	28726
#	33455
#	56618
#	86142
#	101652
#
# Disc length: 1543 seconds
#
# Revision: 6
# Processed by: cddbd v1.5.2PL0 Copyright (c) Steve Scherf et al.
# Submitted via: audiograbber 1.83.01
#
DISCID=54060507
DTITLE=Kraftwerk - 3-D The Catalogue [CD 5) - Computer World
DYEAR=2017
DGENRE=Electronic
TTITLE0=Numbers [live]
TTITLE1=Computer World [live]
TTITLE2=It's More Fun To Compute [live]
TTITLE3=Home Computer [live]
TTITLE4=Computer Love [live]
TTITLE5=Pocket Calculator [live]
TTITLE6=Dentaku [live]
EXTD=
EXTT0=
EXTT1=
EXTT2=
EXTT3=
EXTT4=
EXTT5=
EXTT6=
PLAYORDER=
